# xmcd
# 
# Track frame offsets:
#     150
#     18191
#     34997
#     50766
#     71395
#     79328
#     98989
#     121507
#     140889
# 
# Disc length: 2192
# 
# Revision: 0
# Processed by: cddbd v1.5.2PL0 Copyright (c) Steve Scherf et al.
# Submitted via: fre:ac v1.0.31
# 
DISCID=78088e09
DTITLE=Sean Carey - Range of Light
DYEAR=2014
DGENRE=Folk
TTITLE0=Glass/Film
TTITLE1=Creaking
TTITLE2=Crown the Pines
TTITLE3=Fire-scene
TTITLE4=Radiant
TTITLE5=Alpenglow
TTITLE6=Fleeting Light
TTITLE7=The Dome
TTITLE8=Neverending Fountain
EXTD=
EXTT0=
EXTT1=
EXTT2=
EXTT3=
EXTT4=
EXTT5=
EXTT6=
EXTT7=
EXTT8=
PLAYORDER=
